<?xml version="1.0" encoding="UTF-8" standalone="no"?>
<!DOCTYPE svg PUBLIC "-//W3C//DTD SVG 1.1//EN" "http://www.w3.org/Graphics/SVG/1.1/DTD/svg11.dtd">
<svg width="100%" height="100%" viewBox="0 0 400 450" version="1.1" xmlns="http://www.w3.org/2000/svg" xmlns:xlink="http://www.w3.org/1999/xlink" xml:space="preserve" xmlns:serif="http://www.serif.com/" style="fill-rule:evenodd;clip-rule:evenodd;stroke-linejoin:round;stroke-miterlimit:2;">
    <g id="mobile-ai-robot--android-phone-mobile-device-smartphone-artificial-intelligence-ai" transform="matrix(1,0,0,1,176,201)">
        <g transform="matrix(1.19147,0,0,1.21732,-218.684,-209.588)">
            <path d="M122.061,65.516L79.982,72.843L65.253,82.925L58.176,260.501L57.564,330.891L61.094,349.994L81.057,364.979L222.508,367.088L243.619,356.207L253.399,332.64L256.453,192.138C256.453,192.138 234.657,188.852 220.115,183.446C206.024,178.207 194.934,173.752 187.252,162.911C178.83,151.026 179.802,140.539 180.287,122.235C180.907,98.86 181.932,98.571 181.932,98.571C174.866,91.224 160.849,98.203 122.061,65.516Z" style="fill:rgb(123,219,129);"/>
        </g>
        <g transform="matrix(1.01933,0,0,1.01933,-171.763,-169.66)">
            <path d="M125.862,73.057C111.636,69.586 176.392,90.086 180.068,97.277" style="fill:none;"/>
        </g>
        <g transform="matrix(17.168,0,0,17.5405,-223.272,-172.052)">
            <path d="M18.05,11.13L18.04,11.13C17.875,11.13 17.74,11.265 17.74,11.43C17.74,11.43 17.74,11.43 17.74,11.43C17.74,12.52 17.67,15.13 17.58,17.48C17.52,19.16 17.43,20.7 17.31,21.48C17.269,21.922 17.015,22.318 16.63,22.54C15.915,22.846 15.135,22.973 14.36,22.91L8.76,22.85C8.22,22.85 7.25,22.85 6.4,22.8C5.997,22.821 5.595,22.731 5.24,22.54C4.942,22.143 4.771,21.666 4.75,21.17C4.642,20.284 4.608,19.391 4.65,18.5L4.93,5.37C4.912,4.94 4.953,4.509 5.05,4.09C5.106,3.86 5.227,3.651 5.4,3.49C5.773,3.232 6.201,3.064 6.65,3C7.394,2.852 8.152,2.788 8.91,2.81C9.077,2.781 9.201,2.635 9.201,2.465C9.201,2.295 9.077,2.149 8.91,2.12C8.103,2.091 7.296,2.144 6.5,2.28C5.925,2.356 5.376,2.568 4.9,2.9C4.601,3.165 4.389,3.513 4.29,3.9C4.159,4.372 4.095,4.86 4.1,5.35L3.53,18.44C3.453,19.569 3.51,20.704 3.7,21.82C3.798,22.394 4.058,22.929 4.45,23.36C4.867,23.676 5.368,23.863 5.89,23.9C6.834,23.984 7.782,24.018 8.73,24L11.56,24C12.4,24 13.33,24 14.38,23.93C15.331,23.971 16.277,23.771 17.13,23.35C17.747,22.969 18.145,22.313 18.2,21.59C18.28,20.96 18.32,19.82 18.34,18.52C18.39,15.93 18.34,12.69 18.34,11.43C18.34,11.427 18.34,11.423 18.34,11.42C18.34,11.261 18.209,11.13 18.05,11.13Z" style="fill:rgb(2,2,2);"/>
        </g>
        <g transform="matrix(19.0335,0.582137,-0.377731,12.3502,-237.76,-56.354)">
            <path d="M10.54,20.36L13.5,20.36C13.708,20.347 13.915,20.324 14.12,20.29C14.293,20.272 14.427,20.124 14.427,19.95C14.427,19.762 14.273,19.608 14.085,19.608C14.073,19.608 14.062,19.609 14.05,19.61C13.877,19.62 13.703,19.62 13.53,19.61C13.09,19.55 12.64,19.44 12.2,19.39C11.93,19.39 11.65,19.33 11.38,19.32C10.964,19.295 10.546,19.295 10.13,19.32C9.43,19.381 8.736,19.488 8.05,19.64C7.884,19.656 7.758,19.803 7.77,19.97C7.785,20.123 7.915,20.242 8.069,20.242C8.079,20.242 8.09,20.241 8.1,20.24C8.92,20.19 9.72,20.32 10.54,20.36Z" style="fill:rgb(2,2,2);"/>
        </g>
        <g transform="matrix(15.101,0,0,11.2944,-57.8966,-212.515)">
            <path d="M4.45,20.9L4.11,20C3.844,19.459 3.466,18.982 3,18.6C2.733,18.392 2.421,18.248 2.09,18.18C2.15,17.3 2.21,16.29 2.22,15.31C2.22,14.54 2.22,13.79 2.14,13.13C2.03,12.31 1.95,11.47 1.78,10.65C1.657,10.082 1.473,9.528 1.23,9C1.191,8.881 1.079,8.801 0.954,8.801C0.919,8.801 0.883,8.807 0.85,8.82C0.731,8.859 0.651,8.971 0.651,9.096C0.651,9.131 0.657,9.167 0.67,9.2C0.8,9.711 0.881,10.233 0.91,10.76C0.98,11.58 0.91,12.4 0.98,13.21L1.33,18.21C0.742,18.411 0.303,18.911 0.18,19.52C-0.03,20.744 -0.03,21.996 0.18,23.22C0.19,23.399 0.34,23.541 0.519,23.541C0.526,23.541 0.533,23.54 0.54,23.54C0.609,23.53 0.675,23.502 0.73,23.46C1.09,23.46 1.43,23.41 1.73,23.41L2.84,23.41C3.255,23.435 3.672,23.405 4.08,23.32C4.275,23.272 4.448,23.159 4.57,23C4.66,22.75 4.691,22.483 4.66,22.22C4.631,21.774 4.561,21.332 4.45,20.9ZM2.81,22.59L0.81,22.84C0.774,21.972 0.837,21.103 1,20.25C1.12,19.71 1.27,19.25 1.72,19.25C2.01,19.28 2.276,19.424 2.46,19.65C2.724,19.897 2.944,20.188 3.11,20.51L3.41,21.26C3.534,21.617 3.621,21.985 3.67,22.36C3.43,22.34 3,22.57 2.81,22.59ZM3.67,22.59L3.67,22.55L3.67,22.59Z" style="fill:rgb(12,50,123);"/>
        </g>
        <g transform="matrix(1.18698,0,0,1.19368,-216.84,-203.109)">
            <path d="M153.665,66.598C161.312,58.54 260.223,10.613 260.223,10.613L364.496,59.479L281.943,118.732C281.943,118.732 146.018,74.656 153.665,66.598Z" style="fill:rgb(123,219,129);"/>
        </g>
        <g transform="matrix(11.2724,0,0,10.6623,-50.1961,-202.748)">
            <path d="M24,6.51C23.922,6.297 23.774,6.117 23.58,6C23.21,5.743 22.822,5.513 22.42,5.31C21.8,4.91 21.13,4.53 20.42,4.16C19.42,3.62 18.42,3.16 17.42,2.63L14,1C13.68,0.82 13.345,0.666 13,0.54C12.796,0.481 12.582,0.461 12.37,0.48C12.242,0.496 12.117,0.533 12,0.59C11.84,0.68 11.68,0.81 11.57,0.87L9.57,1.87C8.51,2.37 7.47,2.93 6.45,3.51C5.43,4.09 4.45,4.71 3.45,5.33L0.45,7.33C0.313,7.423 0.273,7.609 0.36,7.75C0.456,7.884 0.642,7.919 0.78,7.83L3.76,5.91C4.76,5.33 5.76,4.75 6.76,4.2C7.76,3.65 8.84,3.14 9.9,2.68L11.9,1.68L12.39,1.39C12.515,1.388 12.638,1.415 12.75,1.47C13.04,1.58 13.31,1.76 13.52,1.86L16.9,3.54C17.9,4.03 18.9,4.54 19.9,5.08C20.55,5.44 21.19,5.81 21.79,6.2C21.96,6.3 22.59,6.48 22.84,6.65C22.715,6.779 22.581,6.899 22.44,7.01C22.03,7.29 21.55,7.54 21.31,7.69C20.47,8.23 19.63,8.78 18.83,9.36C18.03,9.94 17.21,10.55 16.44,11.16L14.44,12.53C14.155,12.546 13.869,12.505 13.6,12.41C12.8,12.17 11.93,11.71 11.32,11.53C10.71,11.35 9.86,11.1 9.1,10.83C8.34,10.56 7.62,10.32 7,10L4.62,8.89C4.13,8.67 3.62,8.44 3,8.19C2.69,8.07 2.36,7.87 2,7.72C1.842,7.647 1.678,7.587 1.51,7.54C1.481,7.532 1.451,7.528 1.421,7.528C1.269,7.528 1.136,7.632 1.1,7.78C1.092,7.81 1.087,7.841 1.087,7.871C1.087,8.025 1.192,8.16 1.34,8.2L2.69,8.85C3.3,9.11 3.79,9.34 4.27,9.57L5.27,10.05L5.46,14.72C5.411,15.219 5.411,15.721 5.46,16.22C5.516,16.493 5.64,16.747 5.82,16.96C6.566,17.866 7.529,18.568 8.62,19C9.663,19.393 10.758,19.629 11.87,19.7C13.34,19.718 14.801,19.481 16.19,19C17.222,18.755 18.171,18.241 18.94,17.51C19.077,17.224 19.162,16.916 19.19,16.6C19.212,16.194 19.212,15.786 19.19,15.38C19.19,14.82 19.19,13.93 19.09,13.03C18.99,12.13 18.96,11.26 18.87,10.71L19.43,10.31C20.23,9.75 21.04,9.21 21.87,8.7C22.529,8.372 23.144,7.962 23.7,7.48C23.957,7.228 24.069,6.863 24,6.51ZM18.4,13.07L18.4,15.38C18.389,15.748 18.359,16.115 18.31,16.48C18.284,16.681 18.227,16.877 18.14,17.06C18.14,17.13 17.95,17.19 17.78,17.28C16.978,17.66 16.136,17.948 15.27,18.14C14.205,18.428 13.102,18.553 12,18.51C10.978,18.453 9.968,18.254 9,17.92C8.072,17.599 7.233,17.065 6.55,16.36C6.433,16.225 6.36,16.058 6.34,15.88C6.296,15.498 6.276,15.114 6.28,14.73L5.88,10.37L6.62,10.75C7.15,11.01 7.75,11.27 8.38,11.52C9.29,11.87 10.25,12.2 11.08,12.46C11.68,12.64 12.54,13.12 13.33,13.38C13.721,13.521 14.135,13.586 14.55,13.57C14.798,13.509 15.035,13.408 15.25,13.27C15.84,12.92 16.75,12.27 17.09,12.04C17.43,11.81 17.88,11.46 18.27,11.18C18.32,11.7 18.35,12.39 18.37,13.07L18.4,13.07Z" style="fill:rgb(2,2,2);stroke:black;stroke-width:0.36px;"/>
        </g>
    </g>
</svg>
