<?xml version="1.0" standalone="no"?>
<!DOCTYPE svg PUBLIC "-//W3C//DTD SVG 20010904//EN"
 "http://www.w3.org/TR/2001/REC-SVG-20010904/DTD/svg10.dtd">
<svg version="1.0" xmlns="http://www.w3.org/2000/svg"
 width="900.000000pt" height="900.000000pt" viewBox="0 0 900.000000 900.000000"
 preserveAspectRatio="xMidYMid meet">
<metadata>
Created by potrace 1.14, written by Peter Selinger 2001-2017
</metadata>
<g transform="translate(0.000000,900.000000) scale(0.100000,-0.100000)"
fill="#000000" stroke="none">
<path d="M5728 8951 c-25 -10 -60 -28 -76 -40 -28 -20 -344 -172 -587 -283
-512 -234 -1130 -587 -1977 -1131 -47 -30 -50 -106 -7 -149 28 -29 34 -30 87
-25 55 5 58 5 77 -25 21 -32 91 -65 600 -287 105 -46 219 -97 255 -114 l65
-32 17 -365 c10 -201 19 -495 20 -655 3 -288 3 -290 29 -345 72 -154 345 -385
589 -498 152 -71 357 -131 590 -174 108 -20 157 -23 365 -23 328 1 512 29 883
135 252 72 348 115 512 224 163 108 198 168 209 357 9 145 -5 616 -22 774 -9
77 -21 205 -28 285 -7 80 -13 147 -13 150 -3 16 518 344 704 445 153 82 307
184 370 245 84 82 103 204 46 290 -30 45 -105 96 -283 194 -65 35 -167 92
-228 126 -228 129 -659 337 -1340 647 -636 290 -623 285 -725 290 -67 3 -95
-1 -132 -16z m205 -292 c34 -17 287 -137 562 -266 814 -382 1069 -510 1332
-666 50 -29 127 -66 170 -82 43 -15 81 -31 86 -35 12 -10 -20 -33 -148 -105
-306 -173 -636 -386 -1005 -651 -121 -88 -323 -226 -448 -307 l-227 -148 -55
6 c-78 8 -169 37 -381 120 -102 40 -275 99 -385 130 -236 67 -607 190 -719
238 -44 19 -230 100 -414 181 -184 81 -400 174 -480 206 -152 61 -388 163
-397 172 -3 3 103 71 234 151 432 263 1059 592 1422 747 201 85 653 297 702
329 40 26 66 23 151 -20z m-1353 -1987 c198 -89 361 -150 680 -251 140 -45
318 -107 395 -138 393 -157 448 -174 590 -176 65 -1 91 3 140 24 83 34 221
118 487 295 l227 151 5 -51 c39 -391 31 -913 -16 -1070 -11 -36 -18 -42 -95
-78 -279 -129 -733 -235 -1083 -253 -309 -17 -744 64 -1009 186 -104 48 -255
148 -338 224 -74 67 -80 83 -88 250 -4 66 -24 305 -46 532 -21 227 -39 417
-39 424 0 15 10 12 190 -69z"/>
<path d="M2265 7674 c-22 -2 -97 -9 -168 -14 -136 -11 -389 -51 -472 -74 -174
-47 -349 -143 -438 -238 -104 -111 -175 -298 -206 -538 -6 -47 -16 -200 -21
-340 -10 -241 -31 -743 -65 -1535 -20 -459 -49 -1138 -80 -1880 -14 -330 -32
-748 -40 -930 -26 -571 -19 -849 30 -1211 37 -274 82 -406 190 -570 67 -100
121 -150 223 -202 135 -69 234 -94 442 -111 328 -27 633 -33 1555 -28 1234 6
1571 20 1803 77 394 96 586 228 707 483 50 104 72 208 90 417 34 421 51 1498
40 2654 l-7 820 -28 28 c-37 37 -96 39 -137 4 -24 -21 -28 -33 -34 -102 -4
-44 -8 -165 -8 -269 -2 -358 -48 -1879 -71 -2325 -32 -598 -64 -926 -101
-1026 -30 -80 -92 -166 -152 -211 -87 -67 -273 -128 -479 -158 -112 -16 -611
-13 -2503 15 -727 11 -761 14 -894 65 -85 33 -82 30 -124 96 -82 129 -111 229
-139 483 -21 186 -23 242 -22 736 1 294 11 974 23 1510 27 1223 48 2211 61
2900 13 659 24 764 92 892 37 70 82 113 173 163 181 101 516 165 953 181 182
7 186 8 215 34 23 21 31 37 34 77 5 47 3 53 -30 89 l-35 39 -169 1 c-92 1
-186 0 -208 -2z"/>
<path d="M3102 7230 c-40 -17 -47 -50 -24 -121 50 -153 72 -339 72 -596 0
-120 15 -322 55 -756 30 -326 56 -603 58 -616 2 -20 -6 -26 -60 -46 -120 -43
-224 -131 -265 -222 -51 -114 -80 -434 -59 -641 15 -145 39 -262 59 -284 23
-26 76 -38 115 -26 19 6 223 14 492 18 268 5 487 13 525 20 82 14 160 56 180
95 25 49 19 209 -13 337 -30 122 -110 291 -178 378 -135 173 -336 306 -514
342 l-56 11 6 41 c28 207 43 778 26 964 -13 141 -70 479 -106 630 -30 126 -60
204 -133 345 -68 131 -104 157 -180 127z m384 -2369 c68 -24 174 -102 251
-184 87 -93 200 -323 228 -464 6 -31 6 -32 -42 -39 -26 -4 -77 -15 -113 -26
-66 -19 -684 -83 -701 -72 -22 13 -3 293 32 479 34 177 82 274 151 308 45 22
127 21 194 -2z"/>
<path d="M2850 1214 c-371 -21 -685 -49 -726 -65 -32 -12 -57 -53 -49 -80 14
-44 73 -56 290 -62 110 -3 337 -17 505 -31 328 -26 1034 -52 1410 -50 180 1
232 4 262 17 49 21 72 56 59 90 -19 50 -50 60 -214 68 -84 4 -244 21 -357 38
-192 28 -277 38 -555 61 -124 11 -527 20 -625 14z"/>
</g>
</svg>
